<?xml version="1.0" encoding="UTF-8" standalone="no"?>
<!-- Created with Inkscape (http://www.inkscape.org/) -->

<svg
   version="1.1"
   id="svg1"
   width="360"
   height="341"
   viewBox="0 0 360 341"
   sodipodi:docname="diagram_example.svg"
   inkscape:version="1.4.2 (ebf0e94, 2025-05-08)"
   xmlns:inkscape="http://www.inkscape.org/namespaces/inkscape"
   xmlns:sodipodi="http://sodipodi.sourceforge.net/DTD/sodipodi-0.dtd"
   xmlns="http://www.w3.org/2000/svg"
   xmlns:svg="http://www.w3.org/2000/svg">
  <sodipodi:namedview
     id="namedview1"
     pagecolor="#ffffff"
     bordercolor="#000000"
     borderopacity="0.25"
     inkscape:showpageshadow="2"
     inkscape:pageopacity="0.0"
     inkscape:pagecheckerboard="0"
     inkscape:deskcolor="#d1d1d1"
     inkscape:zoom="1.6263456"
     inkscape:cx="231.50061"
     inkscape:cy="171.85769"
     inkscape:window-width="1916"
     inkscape:window-height="1024"
     inkscape:window-x="0"
     inkscape:window-y="0"
     inkscape:window-maximized="1"
     inkscape:current-layer="svg1" />
  <defs
     id="defs1" />
  <g
     id="g1">
    <path
       style="fill:#ffffff"
       d="m 164.99824,325.75 c -0.002,-1.50215 5.6536,-20.22619 11.64886,-38.56514 C 179.04119,279.86153 181,273.42678 181,272.88542 181,271.91797 165.69839,253.82545 157.41612,245 c -3.88059,-4.13509 -14.0037,-15.70673 -22.30793,-25.5 -1.8655,-2.2 -5.68585,-6.4496 -8.48967,-9.44355 l -5.09785,-5.44355 -15.01034,3.80199 c -8.255679,2.09109 -16.654235,4.20879 -18.663453,4.70601 -2.707481,0.67 -3.558895,1.35379 -3.289113,2.64156 0.200205,0.95565 6.231611,25.40624 13.403123,54.33465 C 105.1324,299.02552 111,323.47552 111,324.43044 c 0,0.95493 -0.5625,1.55308 -1.25,1.32922 -0.6875,-0.22385 -2.25301,-4.42385 -3.4789,-9.33333 C 105.0452,311.51685 100.371,292.875 95.883989,275 91.396974,257.125 86.446958,236.92182 84.883954,230.10405 81.100556,213.60099 81.475906,214.44462 76.701067,211.71232 74.39048,210.39014 67.55,206.17478 61.5,202.34486 c -6.05,-3.82993 -11.796474,-7.26363 -12.769942,-7.63045 -0.973468,-0.36682 -6.598468,-3.76611 -12.5,-7.55397 C 21.445165,177.67085 18.4939,176.31917 10.747891,175.48964 5.7140177,174.95056 4,174.38327 4,173.25627 c 0,-1.2208 1.0075439,-1.41249 5.25,-0.99886 4.37502,0.42656 7.083291,-0.14148 16.25,-3.40827 6.05,-2.15607 15.5,-5.46766 21,-7.35908 25.797479,-8.87164 27.67124,-9.79776 31.635176,-15.63602 1.999346,-2.94472 4.974296,-7.82904 6.610999,-10.85404 1.636703,-3.025 5.120021,-9.22779 7.740706,-13.78398 l 4.764881,-8.28397 -6.375881,-6.67335 C 87.369146,102.58836 80.874379,95.966149 76.443064,91.542677 72.011749,87.119204 54.799249,69.64037 38.193064,52.700823 11.519344,25.49164 5.8513842,19 8.7683087,19 9.1908785,19 19.178103,28.7875 30.962141,40.75 79.788299,90.315599 86.218336,96.819882 93.197018,103.70349 l 7.302982,7.20349 26.29844,-5.33527 c 14.46415,-2.93439 26.46316,-5.50096 26.66448,-5.703487 0.20131,-0.202522 0.819,-3.640546 1.37263,-7.640052 0.92991,-6.717821 0.81776,-7.736567 -1.47209,-13.371921 C 150.78345,72.506797 143.54803,56.208233 139.40065,47.403509 138.08029,44.600438 137,42.015761 137,41.659782 137,41.303802 134.975,36.5069 132.5,31 127.62108,20.144352 127.31901,19 129.33243,19 130.38045,19 138,34.287379 138,36.39008 c 0,0.27569 2.42152,5.813204 5.38116,12.305587 8.81736,19.3421 9.45903,20.805187 11.58711,26.419719 3.33035,8.786484 1.89035,8.447262 19.13425,4.507484 19.4328,-4.439884 62.18919,-14.460467 67.14173,-15.735641 2.06086,-0.530628 6.48469,-3.307155 9.83963,-6.175647 3.35246,-2.86637 7.8928,-6.415794 10.08965,-7.887609 2.19685,-1.471815 7.44209,-5.521815 11.65609,-9 4.21401,-3.478185 9.23875,-7.48418 11.1661,-8.902212 1.92736,-1.418031 6.65428,-5.347709 10.50428,-8.732617 3.85,-3.384909 7.5625,-6.162201 8.25,-6.171762 3.03401,-0.04219 0.63639,3.046824 -7.38712,9.517299 -4.75041,3.830926 -12.51291,10.115319 -17.25,13.965319 -4.73708,3.85 -10.46193,8.35 -12.72189,10 -2.25995,1.65 -7.50064,5.7 -11.64597,9 l -7.53697,6 -5.94043,17.5 c -3.26724,9.625 -7.7903,22.57152 -10.05125,28.77004 l -4.11082,11.27003 16.04523,11.72997 c 8.82487,6.45148 20.76834,15.21746 26.54103,19.47996 5.77269,4.2625 11.03531,7.75 11.69471,7.75 0.65941,0 9.0547,-3.38502 18.6562,-7.52228 9.6015,-4.13725 19.03228,-7.92611 20.95728,-8.4197 2.99409,-0.76771 10.1784,-3.68448 28.1965,-11.44753 2.54713,-1.09742 3.9037,-1.25737 4.36287,-0.51443 0.3665,0.59301 0.27807,1.42207 -0.1965,1.84235 C 351.02554,137.12272 329.87722,146 328.39316,146 c -0.7249,0 -9.32241,3.41788 -19.10558,7.59529 -9.78317,4.17741 -20.25616,8.46467 -23.27332,9.52725 -3.0994,1.09154 -7.12322,3.5309 -9.25,5.60765 L 273,172.4059 v 35.32843 c 0,32.7478 0.12783,35.37286 1.75,35.93655 4.01771,1.39613 16.39812,6.93395 25.48936,11.40153 5.35665,2.63233 10.71402,5.0954 11.90525,5.47349 1.19124,0.37808 8.95853,3.92597 17.26064,7.8842 8.30211,3.95822 16.66975,7.80614 18.59475,8.55093 4.7226,1.8272 6.29544,3.12353 5.16334,4.25563 -0.94515,0.94515 -15.23984,-5.05284 -37.29461,-15.64863 C 309.47153,262.51461 303.96908,260 303.64105,260 c -0.32803,0 -7.63582,-3.375 -16.23953,-7.5 -8.60371,-4.125 -16.21791,-7.5 -16.92044,-7.5 -1.60615,0 -81.7475,26.53703 -84.35384,27.9319 -1.76037,0.94212 -10.12177,24.94423 -16.65796,47.8181 -1.04975,3.67368 -2.33899,6.25 -3.12761,6.25 -0.73792,0 -1.34246,-0.5625 -1.34343,-1.25 z m 58.1327,-68.77735 C 243.13392,250.3576 261.6375,244.47031 264.25,243.88978 l 4.75,-1.05551 v -33.76742 -33.76742 l -13.25,3.20538 c -21.06063,5.09488 -56.19018,14.54613 -56.88165,15.30341 -0.34741,0.38048 -2.72423,13.29178 -5.28183,28.69178 -2.55759,15.4 -5.31085,31.8895 -6.11834,36.64333 -1.60129,9.42695 -1.64869,9.85667 -1.08724,9.85667 0.20952,0 16.74702,-5.41231 36.75,-12.02735 z m 11.95085,-39.3741 c -1.62583,-1.95901 -0.51799,-5.32533 2.01735,-6.13002 2.74063,-0.86984 5.06394,1.32719 4.70142,4.44587 -0.22537,1.93875 -0.94741,2.66079 -2.88616,2.88616 -1.42207,0.1653 -3.14675,-0.3756 -3.83261,-1.20201 z M 183,267.00826 c 0,-0.54545 1.53067,-9.88295 3.40148,-20.75 1.87082,-10.86704 4.65678,-27.34507 6.19104,-36.61784 l 2.78956,-16.85958 -6.53111,-6.14042 C 173.61388,172.31481 160.93052,161 160.10928,161 c -1.23816,0 -16.21965,5.03917 -18.45334,6.20696 -1.01424,0.53025 -2.76033,3.0631 -3.88021,5.62856 -1.11988,2.56547 -4.69927,10.24219 -7.95419,17.05939 l -5.91805,12.39492 2.3349,2.60508 c 3.17642,3.54399 9.61544,10.90158 19.76161,22.58074 4.675,5.38135 11.425,13.0016 15,16.9339 3.575,3.93229 9.65,10.83538 13.5,15.34018 6.73791,7.88389 8.5,9.38862 8.5,7.25853 z m -32.95432,-62.45322 c -2.03101,-2.44721 -0.88571,-6.01551 2.03992,-6.3556 3.61946,-0.42074 5.55302,2.10353 4.08286,5.33017 -1.25016,2.7438 -4.27607,3.25057 -6.12278,1.02543 z M 103.5,206.17378 120.5,201.5 128.60223,185 c 5.18871,-10.56669 7.70588,-16.72273 7,-17.11939 C 134.996,167.53994 128.875,166.04794 122,164.56505 c -6.875,-1.48289 -20.04473,-4.45802 -29.266065,-6.6114 l -16.766064,-3.91523 -11.233936,4.06503 c -13.066984,4.72832 -38.134217,13.81237 -41.663588,15.09837 -2.268622,0.82661 -1.904095,1.2015 5.5,5.65629 4.361309,2.62406 11.474017,6.99196 15.806017,9.70645 4.332,2.71449 10.407,6.30419 13.5,7.97711 3.093,1.67291 9.448636,5.58164 14.123636,8.68605 5.635182,3.74201 9.511112,5.64024 11.5,5.63211 1.65,-0.007 10.65,-2.11547 20,-4.68605 z M 99.2,188.8 c -1.908887,-1.90889 -1.411015,-5.6167 0.92183,-6.8652 1.75249,-0.9379 2.48008,-0.77734 4.17983,0.92242 1.75322,1.75321 1.88645,2.43451 0.89961,4.60039 -1.23134,2.70248 -4.01787,3.32579 -6.00127,1.34239 z m 120.5364,-4.19009 c 11.41998,-2.96455 27.41119,-7.07913 35.53601,-9.14351 13.39743,-3.40407 15.04957,-4.06908 17.75,-7.14471 1.63768,-1.86521 2.97759,-3.72886 2.97759,-4.14146 0,-0.4126 -5.21834,-4.55945 -11.59631,-9.21521 C 258.02572,150.30926 248.23578,143.125 242.64826,139 c -5.58752,-4.125 -12.07502,-8.80275 -14.41667,-10.395 l -4.25755,-2.89499 -19.23702,2.60506 c -10.58036,1.43278 -21.93702,2.9083 -25.23702,3.27892 -9.98174,1.12105 -9.6697,0.78846 -13.43471,14.31955 l -3.37531,12.13055 10.90501,10.22464 c 5.99776,5.62356 13.60501,12.80513 16.90501,15.95906 3.3,3.15393 6.55638,5.74292 7.2364,5.75331 0.68003,0.0104 10.58003,-2.40664 22,-5.37119 z m -7.34687,-30.03718 c -1.19421,-3.11209 0.0555,-6.06634 2.69607,-6.37329 3.61946,-0.42074 5.55302,2.10353 4.08286,5.33017 -1.26315,2.77232 -5.84483,3.47733 -6.77893,1.04312 z m -63.9888,6.9868 c 5.43411,-1.89225 10.22237,-3.80475 10.64058,-4.25 0.41822,-0.44524 2.33458,-6.33147 4.2586,-13.0805 l 3.49821,-12.27097 -6.61313,-14.29342 -6.61312,-14.29343 -26.44305,5.30484 c -14.54368,2.91767 -26.53632,5.42164 -26.65033,5.5644 -0.95786,1.19943 -12.664923,21.17597 -14.32945,24.4513 -1.171638,2.30546 -3.259479,5.85576 -4.639646,7.88954 C 80.129227,148.61508 79,150.58685 79,150.96299 c 0,0.37614 11.3625,3.2732 25.25,6.43791 13.8875,3.16471 26.825,6.12266 28.75,6.57321 1.925,0.45055 3.95462,0.86569 4.51027,0.92254 0.55564,0.0568 5.45635,-1.44486 10.89046,-3.33712 z m -35.0112,-21.9868 c -1.22717,-3.19798 0.0533,-6.06615 2.85202,-6.38834 3.4367,-0.39563 5.91316,3.71934 3.78303,6.286 -1.60026,1.92819 -5.9089,1.99465 -6.63505,0.10234 z M 198.31066,126.18202 223.12133,122.5 227.08091,111 c 2.17777,-6.325 4.56676,-12.85 5.30886,-14.5 1.62805,-3.619832 8.12327,-22.896805 9.0132,-26.75 0.35192,-1.523752 0.20926,-2.75 -0.31993,-2.75 -0.52528,0 -13.92136,3.110755 -29.76905,6.912789 -15.8477,3.802035 -34.10158,8.111567 -40.5642,9.57674 -10.15883,2.303161 -11.81471,2.958284 -12.22649,4.837211 -2.85311,13.0187 -3.01864,11.94857 4.24169,27.42326 5.43255,11.57894 7.06524,14.23726 8.71038,14.18202 1.11354,-0.0374 13.18943,-1.72488 26.83529,-3.75 z m 8.07338,-25.62361 c -0.85057,-2.216556 -0.0669,-4.728896 1.85206,-5.937346 1.37232,-0.864208 2.17914,-0.650268 3.85039,1.020982 1.75177,1.751769 1.91958,2.478095 0.97871,4.236119 -1.30864,2.445235 -5.82732,2.905305 -6.68116,0.680245 z m 56.18739,187.87016 C 261.70714,287.56429 261,286.24643 261,285.5 c 0,-1.42125 2.6333,-4.5 3.84892,-4.5 1.49833,0 5.15108,3.18061 5.15108,4.48528 0,1.76315 -2.7426,4.51472 -4.5,4.51472 -0.74643,0 -2.06429,-0.70714 -2.92857,-1.57143 z M 58.242976,242.84298 c -2.86379,-2.86379 -0.310724,-7.28689 3.849854,-6.66974 3.036198,0.45036 4.724858,3.30305 3.301193,5.57676 -1.345261,2.1485 -5.465747,2.77828 -7.151047,1.09298 z M 111.75,232.9199 c -3.92476,-2.28596 -0.84026,-7.66134 3.73701,-6.51252 2.75138,0.69056 3.47788,4.22773 1.31299,6.39262 -1.44533,1.44533 -2.72231,1.47565 -5.05,0.1199 z m 190.41992,-13.79372 c -0.75546,-0.47892 -1.18747,-2.09236 -1,-3.73469 C 301.46387,212.81647 301.88307,212.5 305,212.5 c 2.89322,0 3.55665,0.39962 3.82676,2.30504 0.58019,4.09272 -3.17353,6.52936 -6.65684,4.32114 z M 67.039869,114.54804 C 64.383413,111.34721 68.285103,106.43027 71.75,108.6123 75.21233,110.79271 73.978827,116 70,116 c -0.965311,0 -2.29737,-0.65338 -2.960131,-1.45196 z M 248.9348,111.87817 c -0.9379,-1.75249 -0.77734,-2.48008 0.92242,-4.17983 1.75321,-1.75322 2.43451,-1.88645 4.60039,-0.89961 1.70134,0.77519 2.54239,1.95711 2.54239,3.57284 0,3.98719 -6.12527,5.1314 -8.0652,1.5066 z M 100.03207,88.059932 c -1.670162,-3.120734 0.35794,-6.265808 3.78519,-5.869864 C 106.15755,82.460437 106.5,82.946776 106.5,86 c 0,3.053224 -0.34245,3.539563 -2.68274,3.809932 -1.88992,0.218339 -3.00854,-0.298834 -3.78519,-1.75 z m 93.0078,-34.511893 c -2.21102,-2.664113 -0.83064,-5.022374 3.13351,-5.35334 2.98521,-0.249235 3.77933,0.08095 4.3243,1.797987 1.31076,4.129852 -4.6304,6.962175 -7.45781,3.555353 z"
       id="path2"
       sodipodi:nodetypes="cssssscssssssssssssssssssssscsssssscssssssssssssssssssssssscsscsssssssssssscsssssssssssssscsscccsssssssssssssscssssscsssssssssscsssscsssssscssssssssssssscssscssssssssssscccssssssscsssssscssssssssssssssssssssssssssssssssssssssssssssssssssss" />
  </g>
</svg>
